<?xml version="1.0" encoding="utf-8"?>
<!-- Generator: Adobe Illustrator 16.0.0, SVG Export Plug-In . SVG Version: 6.00 Build 0)  -->
<!DOCTYPE svg PUBLIC "-//W3C//DTD SVG 1.1//EN" "http://www.w3.org/Graphics/SVG/1.1/DTD/svg11.dtd">
<svg version="1.1" id="Layer_1" xmlns="http://www.w3.org/2000/svg" xmlns:xlink="http://www.w3.org/1999/xlink" x="0px" y="0px"
	 width="480px" height="320px" viewBox="0 0 480 320" enable-background="new 0 0 480 320" xml:space="preserve">
<g>
	<path fill="#1C1652" d="M89.403,206v57.861h29.707v3.983H84.759V206H89.403z"/>
	<path fill="#1C1652" d="M158.83,205.205c8.884,0,16.413,3.076,22.59,9.233c6.177,6.147,9.267,13.652,9.267,22.507
		c0,8.824-3.09,16.312-9.267,22.469c-6.177,6.149-13.706,9.229-22.59,9.229c-8.858,0-16.36-3.08-22.509-9.229
		c-6.148-6.157-9.223-13.645-9.223-22.469c0-8.854,3.074-16.359,9.223-22.507C142.47,208.281,149.972,205.205,158.83,205.205z
		 M158.999,264.215c7.482,0,13.791-2.635,18.941-7.9c5.142-5.272,7.715-11.724,7.715-19.369c0-7.671-2.573-14.146-7.715-19.409
		c-5.15-5.272-11.459-7.905-18.941-7.905c-7.508,0-13.865,2.633-19.064,7.905c-5.201,5.263-7.802,11.738-7.802,19.409
		c0,7.646,2.601,14.097,7.802,19.369C145.134,261.58,151.491,264.215,158.999,264.215z"/>
	<path fill="#1C1652" d="M247.178,206l-25.173,62.464h-1.369L195.368,206h4.707l21.282,52.328L242.489,206H247.178z"/>
	<path fill="#1C1652" d="M290.761,206v3.987h-28.117v24.744h27.383v4.029h-27.383v25.101h28.808v3.983H258V206H290.761z"/>
	<path fill="#1C1652" d="M316.221,206v57.861h29.708v3.983h-34.352V206H316.221z"/>
	<path fill="#1C1652" d="M395.454,206l-23.346,28.644v33.201h-4.645v-33.201L344.123,206h5.612l20.076,24.502L389.788,206H395.454z"
		/>
	<g id="XMLID_2_">
		<g>
			<polygon fill="#1C1652" points="310.444,49.532 223.919,263.501 218.501,263.501 304.5,49.532 			"/>
		</g>
		<g>
		</g>
	</g>
</g>
</svg>
